<?xml version="1.0" encoding="UTF-8"?>
<svg xmlns="http://www.w3.org/2000/svg" xmlns:xlink="http://www.w3.org/1999/xlink" width="25px" height="24px" viewBox="0 0 24 24" version="1.1">
<g id="surface1">
<path style=" stroke:none;fill-rule:nonzero;fill:rgb(0%,0%,0%);fill-opacity:1;" d="M 12 0 C 5.371094 0 0 5.371094 0 12 C 0 18.628906 5.371094 24 12 24 C 18.628906 24 24 18.628906 24 12 C 23.992188 5.375 18.625 0.0078125 12 0 Z M 12 22 C 6.476562 22 2 17.523438 2 12 C 2 6.476562 6.476562 2 12 2 C 17.523438 2 22 6.476562 22 12 C 21.992188 17.519531 17.519531 21.992188 12 22 Z M 12 22 "/>
<path style=" stroke:none;fill-rule:nonzero;fill:rgb(0%,0%,0%);fill-opacity:1;" d="M 12.71875 5.0625 C 11.550781 4.851562 10.347656 5.167969 9.4375 5.925781 C 8.527344 6.6875 8 7.8125 8 9 C 8 9.550781 8.449219 10 9 10 C 9.550781 10 10 9.550781 10 9 C 10 8.40625 10.265625 7.839844 10.722656 7.460938 C 11.179688 7.078125 11.785156 6.921875 12.371094 7.03125 C 13.179688 7.191406 13.8125 7.820312 13.972656 8.628906 C 14.132812 9.476562 13.730469 10.335938 12.972656 10.753906 C 11.726562 11.476562 10.96875 12.816406 11 14.257812 L 11 15 C 11 15.550781 11.449219 16 12 16 C 12.550781 16 13 15.550781 13 15 L 13 14.257812 C 12.972656 13.546875 13.328125 12.878906 13.929688 12.503906 C 15.414062 11.691406 16.226562 10.027344 15.953125 8.355469 C 15.679688 6.683594 14.382812 5.363281 12.71875 5.0625 Z M 12.71875 5.0625 "/>
<path style=" stroke:none;fill-rule:nonzero;fill:rgb(0%,0%,0%);fill-opacity:1;" d="M 12 17 C 12.550781 17 13 17.449219 13 18 C 13 18.550781 12.550781 19 12 19 C 11.449219 19 11 18.550781 11 18 C 11 17.449219 11.449219 17 12 17 Z M 12 17 "/>
</g>
</svg>
