<?xml version="1.0" standalone="no"?>
<!DOCTYPE svg PUBLIC "-//W3C//DTD SVG 20010904//EN"
 "http://www.w3.org/TR/2001/REC-SVG-20010904/DTD/svg10.dtd">
<svg version="1.0" xmlns="http://www.w3.org/2000/svg"
 width="200.000000pt" height="200.000000pt" viewBox="0 0 200.000000 200.000000"
 preserveAspectRatio="xMidYMid meet">

<g transform="translate(0.000000,200.000000) scale(0.100000,-0.100000)"
fill="#000000" stroke="none">
<path d="M180 1313 c-8 -3 -28 -17 -43 -32 -69 -63 -97 -189 -60 -272 47 -106
182 -98 239 14 15 28 15 31 -10 56 l-27 26 -33 -39 c-23 -28 -38 -37 -49 -33
-37 14 -11 182 30 194 8 3 10 -8 6 -36 l-6 -41 51 0 c55 0 62 7 62 66 0 52
-44 95 -100 100 -25 2 -52 1 -60 -3z m65 -23 c3 -5 12 -7 20 -3 33 12 70 -49
60 -99 -6 -25 -11 -28 -46 -28 -40 0 -48 11 -30 39 5 8 16 11 25 8 23 -9 32
14 11 30 -15 10 -21 10 -28 0 -6 -8 -7 -4 -4 11 5 22 -3 29 -17 15 -4 -5 -12
-8 -17 -8 -17 0 -50 -80 -56 -137 -4 -44 -2 -63 11 -83 22 -33 39 -32 69 5 44
52 90 26 50 -28 -41 -55 -121 -76 -170 -45 -21 14 -39 49 -35 67 2 4 -2 13 -7
20 -5 6 -8 27 -6 46 2 19 4 44 5 55 1 19 2 19 12 -2 10 -21 48 -39 48 -22 0 5
-4 9 -10 9 -11 0 27 71 44 82 19 13 -3 9 -39 -6 -19 -8 -35 -20 -35 -27 0 -7
-3 -10 -6 -7 -8 9 14 48 44 81 27 29 57 35 65 15 3 -9 7 -7 12 5 8 19 21 22
30 7z"/>
<path d="M376 1311 c-9 -14 -30 -347 -23 -365 4 -10 18 -16 41 -16 61 0 66 6
66 76 0 60 2 65 26 74 14 6 28 10 31 10 3 0 3 -33 2 -72 l-4 -73 55 0 55 0 7
180 c3 99 3 184 -1 188 -5 5 -28 7 -52 5 l-44 -3 -5 -65 c-5 -62 -6 -65 -32
-68 l-28 -3 0 70 0 71 -44 0 c-25 0 -47 -4 -50 -9z m245 -96 c-1 -49 -6 -94
-10 -98 -5 -5 -6 -29 -3 -54 3 -32 2 -44 -6 -39 -6 4 -23 4 -37 0 -24 -6 -25
-8 -10 -24 9 -10 15 -27 13 -37 -3 -14 -8 -11 -21 15 -10 18 -15 37 -12 42 3
5 3 25 -1 45 l-6 35 -52 -5 c-28 -2 -57 -4 -63 -5 -7 0 -13 -5 -13 -11 0 -6 7
-8 16 -5 12 4 14 1 9 -14 -5 -15 -3 -18 9 -14 9 3 16 2 16 -4 0 -5 -16 -9 -35
-8 -19 1 -35 0 -35 -2 0 -9 32 -34 37 -28 10 10 33 -15 33 -35 0 -16 -8 -19
-45 -19 -33 0 -45 4 -45 15 0 8 7 15 15 15 8 0 15 7 15 15 0 9 -6 12 -16 8
-12 -5 -15 -1 -11 13 3 10 9 73 12 140 l7 121 39 1 c33 2 39 -1 39 -18 0 -12
-7 -20 -17 -21 -11 0 -13 -3 -5 -6 6 -2 12 -18 12 -34 0 -16 5 -29 10 -29 6 0
10 -6 10 -14 0 -8 18 -23 40 -35 33 -17 40 -18 40 -6 0 8 5 15 12 15 6 0 4 7
-5 18 -17 19 -24 88 -8 78 5 -3 16 5 24 18 15 22 15 24 -3 29 -11 3 -20 13
-20 22 0 13 8 16 37 13 l36 -3 -2 -90z m-14 -252 c-3 -10 -5 -2 -5 17 0 19 2
27 5 18 2 -10 2 -26 0 -35z"/>
<path d="M563 1114 c3 -4 2 -15 -3 -25 -11 -19 -4 -49 11 -49 5 0 7 11 3 24
-3 13 -1 27 5 30 17 11 13 26 -6 26 -9 0 -13 -3 -10 -6z"/>
<path d="M797 1311 c-24 -5 -34 -18 -57 -73 -35 -82 -90 -251 -90 -277 0 -14
10 -20 39 -25 51 -8 64 -2 78 34 9 24 17 30 41 30 27 0 31 -4 34 -32 3 -32 5
-33 52 -36 27 -2 53 1 58 6 10 10 -36 279 -57 329 -7 17 -22 36 -33 42 -22 12
-23 12 -65 2z m74 -27 c12 -15 11 -16 -9 -10 -24 8 -28 -3 -12 -35 12 -22 32
-26 24 -5 -3 8 -1 17 4 20 6 3 21 -52 36 -132 29 -152 31 -172 16 -172 -5 0
-10 15 -10 34 0 33 -21 66 -41 66 -5 0 -9 5 -9 10 0 6 6 10 14 10 17 0 5 78
-15 91 -10 6 -11 9 -1 9 6 0 12 5 12 10 0 19 -21 10 -29 -12 -6 -17 -4 -25 8
-30 14 -6 14 -7 -2 -7 -10 -1 -20 7 -23 17 -19 59 -20 59 -42 15 -12 -22 -26
-43 -32 -45 -7 -2 -8 -12 -2 -27 6 -16 11 -20 16 -13 4 7 18 12 32 12 21 0 24
-4 19 -20 -4 -14 -2 -20 9 -20 10 0 13 -6 9 -16 -4 -11 -8 -12 -13 -4 -5 8 -9
7 -13 -4 -4 -9 -18 -16 -32 -16 -14 0 -25 -4 -25 -10 0 -5 -4 -10 -10 -10 -5
0 -10 6 -10 14 0 8 -7 17 -16 20 -12 5 -15 0 -12 -22 2 -19 8 -26 21 -24 10 2
17 -3 17 -13 0 -11 -11 -15 -45 -15 -25 0 -45 3 -45 8 0 4 16 57 36 119 29 89
39 111 51 106 13 -5 15 -1 9 21 -6 25 4 55 28 82 16 19 71 17 87 -2z m-51
-164 c0 -11 -4 -20 -9 -20 -5 0 -7 9 -4 20 3 11 7 20 9 20 2 0 4 -9 4 -20z
m60 -94 c0 -3 -4 -8 -10 -11 -5 -3 -10 -1 -10 4 0 6 5 11 10 11 6 0 10 -2 10
-4z m24 -61 c3 -9 0 -15 -8 -15 -8 0 -16 7 -20 15 -3 9 0 15 8 15 8 0 16 -7
20 -15z"/>
<path d="M810 1240 c0 -5 5 -10 10 -10 6 0 10 5 10 10 0 6 -4 10 -10 10 -5 0
-10 -4 -10 -10z"/>
<path d="M753 1043 c-18 -6 -16 -23 1 -23 17 0 30 16 19 23 -5 2 -14 2 -20 0z"/>
<path d="M1522 1311 c-4 -3 -20 -36 -36 -73 -16 -38 -30 -68 -32 -68 -1 0 -11
27 -20 60 -9 33 -22 65 -30 70 -7 6 -32 10 -56 8 l-43 -3 -8 -120 c-4 -66 -6
-149 -5 -185 l3 -65 38 -3 c46 -4 67 11 67 46 l0 26 16 -22 c19 -28 29 -28 59
3 l25 24 0 -34 c0 -38 21 -50 76 -43 l29 3 3 174 c1 111 -1 178 -8 186 -12 14
-65 25 -78 16z m-121 -31 c11 0 12 -33 2 -44 -14 -14 -11 -36 6 -36 18 0 45
-65 35 -82 -3 -5 -3 -24 0 -43 5 -25 11 -33 26 -32 24 2 26 23 4 35 -11 6 -13
11 -5 16 6 4 11 2 11 -3 0 -6 5 -11 10 -11 6 0 10 7 10 15 0 8 -9 15 -20 15
-27 0 -25 14 8 96 25 59 33 70 61 78 25 7 35 6 42 -5 5 -8 9 -85 9 -171 l0
-158 -40 0 -39 0 -3 63 -3 62 -18 -32 c-10 -20 -25 -33 -37 -33 -13 0 -18 -5
-14 -15 4 -8 1 -15 -5 -15 -7 0 -14 6 -16 13 -2 6 -10 26 -16 42 l-12 30 -9
-32 c-5 -18 -15 -33 -22 -33 -8 0 -16 -7 -20 -15 -3 -8 -1 -15 4 -15 6 0 10 5
10 10 0 6 5 10 10 10 6 0 10 -9 10 -20 0 -15 -7 -20 -29 -20 l-28 0 -7 148
c-4 81 -4 155 -1 164 7 17 39 28 63 22 8 -2 18 -4 23 -4z"/>
<path d="M1544 1214 c3 -9 6 -18 6 -20 0 -2 4 -4 8 -4 4 0 8 9 8 20 0 11 -7
20 -14 20 -9 0 -12 -6 -8 -16z"/>
<path d="M1537 1133 c-4 -3 -7 -13 -7 -22 1 -13 3 -13 11 2 11 19 8 33 -4 20z"/>
<path d="M1540 1019 c0 -5 5 -7 10 -4 6 3 10 8 10 11 0 2 -4 4 -10 4 -5 0 -10
-5 -10 -11z"/>
<path d="M1575 1010 c-3 -5 -1 -10 4 -10 6 0 11 5 11 10 0 6 -2 10 -4 10 -3 0
-8 -4 -11 -10z"/>
<path d="M1663 1306 c-17 -6 -35 -14 -38 -18 -4 -4 10 -53 31 -110 24 -65 40
-129 43 -173 l6 -70 45 0 44 0 12 70 c6 39 29 116 52 173 23 56 42 109 42 116
0 9 -15 15 -41 18 -46 4 -56 -5 -80 -74 -7 -21 -16 -38 -20 -38 -4 0 -15 21
-25 48 -24 65 -32 72 -71 58z m60 -70 c17 -40 24 -74 21 -95 -3 -17 -1 -31 5
-31 15 0 29 30 24 50 -4 13 26 102 42 128 2 2 65 -19 65 -22 0 -1 -13 -32 -28
-69 -30 -69 -42 -89 -42 -68 0 7 -4 9 -10 6 -14 -9 -13 -45 2 -45 6 0 8 -3 4
-7 -4 -5 -13 -8 -19 -8 -7 0 -13 -20 -14 -52 -1 -29 2 -53 7 -53 6 0 10 -4 10
-10 0 -5 -18 -10 -41 -10 l-40 0 6 43 c5 34 -1 63 -34 155 -23 63 -41 118 -41
123 0 5 9 9 20 9 11 0 20 5 20 10 0 28 21 3 43 -54z"/>
<path d="M1795 1200 c4 -6 11 -8 16 -5 14 9 11 15 -7 15 -8 0 -12 -5 -9 -10z"/>
<path d="M1056 1301 c-50 -8 -52 -14 -61 -211 l-8 -150 42 0 41 0 0 54 c0 41
4 55 17 60 18 7 23 2 59 -67 l24 -47 31 15 c42 22 45 38 15 91 l-26 46 24 29
c46 54 45 132 -1 169 -27 21 -74 24 -157 11z m104 -90 c0 -24 -29 -57 -57 -66
-20 -6 -23 -3 -23 24 0 36 23 61 56 61 17 0 24 -6 24 -19z"/>
</g>
</svg>
